<?xml version="1.0" encoding="utf-8"?>
<svg viewBox="85.516 93.427 261.954 129.958" xmlns="http://www.w3.org/2000/svg">
  <path class="cls-1" d="M 77.847 300.917 L 77.847 16.097 L 361.307 16.097 L 361.307 300.917 L 77.847 300.917 Z M 161.987 125.187 C 161.845 125.202 161.7 125.202 161.557 125.187 C 158.947 125.057 156.317 125.017 153.717 124.787 C 149.867 124.437 146.047 124.097 142.247 125.167 C 139.957 125.797 137.557 126.057 135.467 127.297 C 134.907 127.687 134.194 127.787 133.547 127.567 C 130.891 126.636 128.078 126.235 125.267 126.387 C 124.647 126.447 124.507 126.147 124.507 125.607 C 124.51 123.719 124.265 121.84 123.777 120.017 C 123.633 119.085 123.385 118.173 123.037 117.297 C 121.928 115.282 120.275 113.619 118.267 112.497 C 118.103 112.406 117.929 112.336 117.747 112.287 C 115.037 111.374 112.159 111.07 109.317 111.397 L 109.027 111.397 C 106.827 111.597 104.607 111.707 102.417 112.007 C 100.159 112.198 98.024 113.121 96.337 114.637 C 94.921 115.788 93.878 117.333 93.337 119.077 C 92.872 120.609 92.584 122.189 92.477 123.787 C 92.477 127.107 92.777 130.437 92.957 133.787 C 93.384 141.62 93.817 149.447 94.257 157.267 C 94.677 164.737 95.077 172.207 95.527 179.677 C 95.611 181.418 95.812 183.152 96.127 184.867 C 96.707 187.747 97.217 190.677 99.317 192.987 C 99.417 193.097 99.317 193.527 99.197 193.687 C 98.235 194.824 97.614 196.211 97.407 197.687 C 97.287 198.427 97.067 199.157 96.907 199.897 C 96.814 200.159 96.777 200.439 96.797 200.717 C 97.257 202.597 97.637 204.497 98.257 206.327 C 98.877 208.157 99.727 209.977 100.497 211.787 C 100.934 212.924 101.435 214.036 101.997 215.117 C 102.969 216.913 104.42 218.404 106.187 219.427 C 106.664 219.717 107.175 219.949 107.707 220.117 C 109.007 220.467 110.327 220.747 111.637 221.037 C 111.862 221.081 112.093 221.081 112.317 221.037 C 115 220.512 117.626 219.728 120.157 218.697 C 123.785 217.097 127.656 216.12 131.607 215.807 C 134.517 215.627 137.447 215.577 140.367 215.647 C 143.673 215.682 146.945 216.312 150.027 217.507 C 152.777 218.504 155.607 219.26 158.487 219.767 C 158.857 219.841 159.238 219.841 159.607 219.767 C 162.038 219.314 164.442 218.726 166.807 218.007 C 168.277 217.497 169.517 216.327 170.877 215.487 C 173.047 214.147 174.347 212.037 175.687 209.997 C 176.364 208.955 176.892 207.824 177.257 206.637 C 178.452 203.193 178.795 199.512 178.257 195.907 C 178.217 195.414 178.217 194.919 178.257 194.427 C 178.547 194.427 178.737 194.427 178.917 194.427 C 181.427 194.697 183.747 193.747 186.137 193.267 C 186.295 193.215 186.441 193.133 186.567 193.027 C 188.316 192.031 189.78 190.602 190.817 188.877 C 191.074 188.435 191.278 187.965 191.427 187.477 C 191.787 186.117 192.097 184.737 192.427 183.287 L 193.247 183.867 C 194.497 184.949 195.943 185.781 197.507 186.317 C 199.157 186.717 200.797 187.147 202.507 187.447 C 203.551 187.587 204.604 187.647 205.657 187.627 C 206.373 187.562 207.092 187.562 207.807 187.627 C 208.997 187.887 210.127 188.417 211.307 188.697 C 213.307 189.157 215.307 189.617 217.307 189.877 C 219.241 190.032 221.187 189.828 223.047 189.277 C 223.277 189.221 223.52 189.272 223.707 189.417 C 225.404 191.261 227.33 192.881 229.437 194.237 C 230.186 194.844 231.005 195.358 231.877 195.767 C 234.92 196.907 238.096 197.657 241.327 197.997 C 241.553 198.039 241.743 198.188 241.837 198.397 C 242.127 199.537 242.387 200.687 242.607 201.847 C 243.612 207.467 246.573 212.551 250.967 216.197 C 254.087 218.857 257.537 221.047 261.727 221.727 C 263.777 222.057 265.787 222.617 267.837 222.877 C 269.887 223.137 272.037 222.417 274.127 222.077 C 279.365 221.136 284.179 218.584 287.897 214.777 C 289.767 212.869 291.344 210.696 292.577 208.327 C 293.275 207.124 293.816 205.837 294.187 204.497 C 295.077 201.057 296.107 197.637 296.187 194.027 C 298.277 193.537 300.317 193.027 302.357 192.597 C 302.54 192.572 302.725 192.614 302.877 192.717 C 305.458 194.469 308.378 195.661 311.447 196.217 C 313.607 196.637 315.777 197.137 317.967 197.367 C 320.066 197.491 322.171 197.268 324.197 196.707 C 327.197 196.027 330.197 195.437 332.877 193.857 C 334.495 192.887 336.057 191.829 337.557 190.687 C 340.763 188.273 343.263 185.044 344.797 181.337 C 345.534 179.175 346.112 176.962 346.527 174.717 C 346.853 173.58 346.853 172.374 346.527 171.237 C 346.266 170.355 346.049 169.46 345.877 168.557 C 345.537 166.897 344.357 165.767 343.347 164.557 C 343.078 164.299 342.958 163.923 343.027 163.557 C 343.305 162.152 343.466 160.728 343.507 159.297 C 343.395 158.1 343.163 156.918 342.817 155.767 C 342.363 153.241 341.441 150.823 340.097 148.637 C 337.826 145.226 334.73 142.443 331.097 140.547 C 328.707 139.257 325.987 138.957 323.397 138.287 C 321.081 137.68 318.665 137.554 316.297 137.917 C 315.297 138.067 314.297 138.307 313.247 138.527 C 313.247 137.007 313.297 135.527 313.247 134.087 C 313.117 130.797 312.647 127.587 310.247 125.087 C 309.385 124.256 308.452 123.503 307.457 122.837 C 307.205 122.628 306.901 122.49 306.577 122.437 C 305.867 122.367 305.577 121.977 305.577 121.347 C 305.368 119.293 304.51 117.36 303.127 115.827 C 303.127 115.827 303.047 115.697 302.997 115.657 C 301.877 114.847 300.867 113.657 299.617 113.297 C 297.145 112.325 294.504 111.852 291.847 111.907 C 290.327 112.027 288.787 111.907 287.247 111.907 C 286.847 111.91 286.449 111.953 286.057 112.037 C 284.837 112.307 283.617 112.577 282.407 112.907 C 280.764 113.431 279.306 114.417 278.207 115.747 C 276.86 117.154 276.028 118.976 275.847 120.917 C 275.847 121.057 275.767 121.197 275.757 121.327 C 275.753 121.744 275.424 122.086 275.007 122.107 C 274.498 122.177 274.006 122.343 273.557 122.597 C 271.775 123.583 270.29 125.03 269.257 126.787 C 269.013 127.183 268.821 127.61 268.687 128.057 C 268.257 129.897 267.867 131.757 267.467 133.617 L 266.217 132.787 C 266.517 130.887 266.857 129.077 267.077 127.257 C 267.417 124.397 266.657 121.647 266.077 118.867 C 265.038 113.458 262.035 108.625 257.647 105.297 C 255.176 103.126 252.203 101.604 248.997 100.867 C 246.777 100.447 244.587 99.807 242.347 99.547 C 238.627 99.127 235.117 100.437 231.587 101.327 C 228.507 102.117 226.007 104.017 223.587 105.917 C 222.858 106.447 222.188 107.054 221.587 107.727 C 220.417 109.137 219.337 110.627 218.197 112.067 C 218.077 112.217 217.797 112.407 217.657 112.367 C 215.849 111.907 213.977 111.748 212.117 111.897 C 211.802 111.951 211.511 111.716 211.497 111.397 C 211.377 110.777 211.197 110.167 211.017 109.557 C 210.327 107.147 208.807 105.207 207.407 103.197 C 205.369 100.464 202.722 98.242 199.677 96.707 C 196.997 95.227 193.927 94.947 190.987 94.297 C 189.115 93.989 187.197 94.126 185.387 94.697 C 182.857 95.347 180.197 95.627 177.907 96.977 C 176.307 97.917 174.807 99.037 173.257 100.077 C 171.676 101.191 170.273 102.54 169.097 104.077 C 166.334 107.469 164.433 111.48 163.557 115.767 C 162.778 118.859 162.253 122.009 161.987 125.187 Z" style="fill-rule: evenodd; fill: none;" transform="matrix(1, 0, 0, 1, 0, 7.105427357601002e-15)"/>
  <path class="cls-2" d="M 161.987 125.187 C 162.249 122.023 162.767 118.886 163.537 115.807 C 164.413 111.52 166.314 107.509 169.077 104.117 C 170.253 102.58 171.656 101.231 173.237 100.117 C 174.787 99.117 176.237 97.957 177.887 97.017 C 180.177 95.667 182.837 95.387 185.367 94.737 C 187.177 94.166 189.095 94.029 190.967 94.337 C 193.907 94.987 196.967 95.267 199.657 96.747 C 202.702 98.282 205.349 100.504 207.387 103.237 C 208.787 105.237 210.307 107.237 210.997 109.597 C 211.177 110.207 211.357 110.817 211.477 111.437 C 211.491 111.756 211.782 111.991 212.097 111.937 C 213.957 111.788 215.829 111.947 217.637 112.407 C 217.777 112.407 218.057 112.257 218.177 112.107 C 219.317 110.667 220.397 109.177 221.567 107.767 C 222.168 107.094 222.838 106.487 223.567 105.957 C 226.027 104.057 228.567 102.157 231.567 101.367 C 235.097 100.477 238.567 99.167 242.327 99.587 C 244.567 99.847 246.757 100.487 248.977 100.907 C 252.183 101.644 255.156 103.166 257.627 105.337 C 262.015 108.665 265.018 113.498 266.057 118.907 C 266.587 121.687 267.347 124.437 267.057 127.297 C 266.837 129.117 266.497 130.927 266.197 132.827 L 267.447 133.657 C 267.847 131.797 268.237 129.937 268.667 128.097 C 268.801 127.65 268.993 127.223 269.237 126.827 C 270.27 125.07 271.755 123.623 273.537 122.637 C 273.986 122.383 274.478 122.217 274.987 122.147 C 275.404 122.126 275.733 121.784 275.737 121.367 C 275.737 121.237 275.817 121.097 275.827 120.957 C 276.008 119.016 276.84 117.194 278.187 115.787 C 279.286 114.457 280.744 113.471 282.387 112.947 C 283.597 112.617 284.817 112.347 286.037 112.077 C 286.429 111.993 286.827 111.95 287.227 111.947 C 288.767 111.947 290.307 112.037 291.827 111.947 C 294.455 111.859 297.074 112.287 299.537 113.207 C 300.787 113.607 301.797 114.757 302.917 115.567 C 302.967 115.567 302.997 115.687 303.047 115.737 C 304.43 117.27 305.288 119.203 305.497 121.257 C 305.567 121.887 305.817 122.257 306.497 122.347 C 306.821 122.4 307.125 122.538 307.377 122.747 C 308.372 123.413 309.305 124.166 310.167 124.997 C 312.517 127.537 312.987 130.747 313.167 133.997 C 313.227 135.457 313.167 136.917 313.167 138.437 C 314.237 138.217 315.217 137.977 316.217 137.827 C 318.585 137.464 321.001 137.59 323.317 138.197 C 325.907 138.867 328.627 139.197 331.017 140.457 C 334.65 142.353 337.746 145.136 340.017 148.547 C 341.361 150.733 342.283 153.151 342.737 155.677 C 343.083 156.828 343.315 158.01 343.427 159.207 C 343.386 160.638 343.225 162.062 342.947 163.467 C 342.878 163.833 342.998 164.209 343.267 164.467 C 344.267 165.677 345.457 166.807 345.797 168.467 C 345.969 169.37 346.186 170.265 346.447 171.147 C 346.773 172.284 346.773 173.49 346.447 174.627 C 346.032 176.872 345.454 179.085 344.717 181.247 C 343.183 184.954 340.683 188.183 337.477 190.597 C 335.977 191.739 334.415 192.797 332.797 193.767 C 330.127 195.347 327.097 195.937 324.117 196.617 C 322.091 197.178 319.986 197.401 317.887 197.277 C 315.697 197.047 313.527 196.547 311.367 196.127 C 308.298 195.571 305.378 194.379 302.797 192.627 C 302.645 192.524 302.46 192.482 302.277 192.507 C 300.277 192.967 298.197 193.447 296.107 193.937 C 296.057 197.547 295.027 200.937 294.107 204.407 C 293.736 205.747 293.195 207.034 292.497 208.237 C 291.264 210.606 289.687 212.779 287.817 214.687 C 284.099 218.494 279.285 221.046 274.047 221.987 C 271.957 222.327 269.897 223.057 267.757 222.787 C 265.617 222.517 263.697 221.967 261.647 221.637 C 257.457 220.957 254.007 218.767 250.887 216.107 C 246.493 212.461 243.532 207.377 242.527 201.757 C 242.307 200.597 242.047 199.447 241.757 198.307 C 241.663 198.098 241.473 197.949 241.247 197.907 C 238.016 197.567 234.84 196.817 231.797 195.677 C 230.925 195.268 230.106 194.754 229.357 194.147 C 227.25 192.791 225.324 191.171 223.627 189.327 C 223.44 189.182 223.197 189.131 222.967 189.187 C 221.107 189.738 219.161 189.942 217.227 189.787 C 215.227 189.527 213.227 189.067 211.227 188.607 C 210.047 188.327 208.917 187.797 207.727 187.537 C 207.012 187.472 206.293 187.472 205.577 187.537 C 204.524 187.557 203.471 187.497 202.427 187.357 C 200.757 187.057 199.117 186.627 197.427 186.227 C 195.863 185.691 194.417 184.859 193.167 183.777 L 192.347 183.197 C 192.007 184.647 191.697 186.027 191.347 187.387 C 191.198 187.875 190.994 188.345 190.737 188.787 C 189.7 190.512 188.236 191.941 186.487 192.937 C 186.361 193.043 186.215 193.125 186.057 193.177 C 183.667 193.657 181.347 194.607 178.837 194.337 C 178.657 194.337 178.467 194.337 178.177 194.337 C 178.137 194.829 178.137 195.324 178.177 195.817 C 178.715 199.422 178.372 203.103 177.177 206.547 C 176.833 207.767 176.318 208.931 175.647 210.007 C 174.307 212.007 173.007 214.157 170.837 215.497 C 169.477 216.337 168.237 217.497 166.767 218.017 C 164.402 218.736 161.998 219.324 159.567 219.777 C 159.198 219.851 158.817 219.851 158.447 219.777 C 155.567 219.27 152.737 218.514 149.987 217.517 C 146.932 216.325 143.687 215.688 140.407 215.637 C 137.487 215.567 134.557 215.637 131.647 215.797 C 127.696 216.11 123.825 217.087 120.197 218.687 C 117.666 219.718 115.04 220.502 112.357 221.027 C 112.133 221.071 111.902 221.071 111.677 221.027 C 110.367 220.737 109.047 220.457 107.747 220.107 C 107.215 219.939 106.704 219.707 106.227 219.417 C 104.46 218.394 103.009 216.903 102.037 215.107 C 101.475 214.026 100.974 212.914 100.537 211.777 C 99.767 209.967 98.917 208.177 98.297 206.317 C 97.677 204.457 97.297 202.587 96.837 200.707 C 96.817 200.429 96.854 200.149 96.947 199.887 C 97.107 199.147 97.327 198.417 97.447 197.677 C 97.654 196.201 98.275 194.814 99.237 193.677 C 99.377 193.517 99.457 193.087 99.357 192.977 C 97.257 190.667 96.747 187.737 96.167 184.857 C 95.852 183.142 95.651 181.408 95.567 179.667 C 95.117 172.197 94.717 164.727 94.297 157.257 C 93.871 149.43 93.437 141.603 92.997 133.777 C 92.817 130.457 92.517 127.127 92.517 123.777 C 92.624 122.179 92.912 120.599 93.377 119.067 C 93.918 117.323 94.961 115.778 96.377 114.627 C 98.072 113.133 100.206 112.231 102.457 112.057 C 104.647 111.757 106.867 111.647 109.067 111.447 L 109.357 111.447 C 112.199 111.12 115.077 111.424 117.787 112.337 C 117.969 112.386 118.143 112.456 118.307 112.547 C 120.315 113.669 121.968 115.332 123.077 117.347 C 123.425 118.223 123.673 119.135 123.817 120.067 C 124.305 121.89 124.55 123.769 124.547 125.657 C 124.547 126.197 124.687 126.497 125.307 126.437 C 128.106 126.297 130.905 126.704 133.547 127.637 C 134.194 127.857 134.907 127.757 135.467 127.367 C 137.557 126.127 139.957 125.867 142.247 125.237 C 146.047 124.167 149.867 124.507 153.717 124.857 C 156.317 125.087 158.947 125.127 161.557 125.257 C 161.703 125.249 161.847 125.226 161.987 125.187 Z M 255.547 161.917 L 255.707 161.917 C 255.797 162.347 255.897 162.787 255.987 163.227 C 256.444 165.988 257.648 168.571 259.467 170.697 C 262.337 173.777 266.047 174.697 270.087 174.567 C 271.56 174.451 273.025 174.261 274.477 173.997 C 274.453 174.256 274.453 174.517 274.477 174.777 C 274.607 175.557 274.297 175.837 273.477 176.037 C 269.502 176.851 265.699 178.35 262.237 180.467 C 260.336 181.661 258.584 183.078 257.017 184.687 C 249.907 192.377 251.477 204.997 262.197 210.237 C 266.663 212.495 271.991 212.217 276.197 209.507 C 279.453 207.667 282.004 204.796 283.447 201.347 C 284.818 197.685 285.238 193.735 284.667 189.867 C 284.527 188.507 284.337 187.157 284.177 185.787 L 293.257 183.457 C 296.017 182.747 298.857 182.317 301.447 181.017 C 302.447 180.507 303.447 179.937 304.507 179.367 C 304.861 179.86 305.249 180.328 305.667 180.767 C 311.187 185.997 317.667 187.237 324.797 185.047 C 329.133 183.806 332.697 180.708 334.527 176.587 C 335.157 175.316 335.476 173.915 335.457 172.497 L 327.197 171.937 C 327.033 173.154 326.41 174.262 325.457 175.037 C 321.859 178.088 316.667 178.362 312.767 175.707 C 312.647 175.617 312.487 175.557 312.217 175.407 L 318.927 172.827 C 322.578 171.505 325.964 169.545 328.927 167.037 C 332.702 163.95 333.384 158.442 330.477 154.527 C 329.033 152.431 326.986 150.824 324.607 149.917 C 320.292 148.228 315.461 148.461 311.327 150.557 C 304.327 153.807 299.077 160.967 300.487 170.257 C 300.567 170.777 300.837 171.417 300.627 171.797 C 300.417 172.177 299.747 172.387 299.257 172.607 C 298.027 173.167 296.777 173.697 295.257 174.327 C 295.027 172.547 294.707 170.997 294.637 169.437 C 294.527 166.657 294.527 163.867 294.537 161.087 C 294.537 154.087 294.627 147.087 294.677 140.087 C 294.677 139.737 294.677 139.397 294.677 138.967 L 301.847 138.967 L 301.847 132.337 L 294.777 132.337 L 294.777 123.337 L 286.357 123.337 L 286.357 132.417 L 278.897 132.417 L 278.897 139.027 L 286.337 139.027 L 286.337 139.877 C 286.287 146.137 286.227 152.397 286.217 158.657 C 286.217 162.567 286.267 166.487 286.337 170.407 C 286.337 171.407 286.537 172.507 286.647 173.597 L 283.477 174.157 L 283.477 143.967 L 274.477 143.967 L 274.477 144.787 C 274.477 149.773 274.477 154.757 274.477 159.737 C 274.477 160.737 274.377 161.667 274.317 162.637 C 274.277 163.462 273.827 164.213 273.117 164.637 C 272.029 165.322 270.763 165.67 269.477 165.637 C 266.767 165.637 265.807 164.877 265.037 162.307 C 264.518 160.456 264.487 158.503 264.947 156.637 C 265.717 153.373 265.497 149.955 264.317 146.817 C 263.34 143.934 260.611 142.014 257.567 142.067 C 254.524 142.089 251.637 143.423 249.647 145.727 C 247.029 148.761 245.778 152.74 246.187 156.727 C 246.357 159.667 246.607 162.607 246.787 165.557 C 246.985 167.866 246.809 170.193 246.267 172.447 C 245.926 174.428 244.72 176.154 242.977 177.157 C 242.07 177.745 240.881 177.651 240.077 176.927 C 239.283 176.227 238.587 175.423 238.007 174.537 C 236.546 171.97 235.566 169.157 235.117 166.237 C 235.096 165.985 235.163 165.734 235.307 165.527 C 239.097 159.997 242.827 154.427 246.717 148.977 C 251.047 142.897 254.437 136.437 255.717 128.977 C 256.298 125.899 256.057 122.722 255.017 119.767 C 252.767 113.637 245.747 109.697 239.017 110.767 C 233.248 111.536 228.342 115.359 226.187 120.767 C 224.717 124.3 223.852 128.056 223.627 131.877 C 223.304 136.54 223.361 141.222 223.797 145.877 C 224.287 151.687 224.957 157.477 225.537 163.277 C 225.573 163.503 225.534 163.734 225.427 163.937 C 224.557 165.167 223.707 166.427 222.747 167.577 C 221.534 168.91 219.776 169.614 217.977 169.487 C 217.061 169.606 216.217 168.971 216.077 168.057 C 215.785 166.893 215.605 165.704 215.537 164.507 C 215.537 160.897 215.727 157.287 215.767 153.677 C 215.767 148.997 215.767 144.327 215.767 139.677 C 215.767 139.097 215.927 138.907 216.527 138.917 C 218.157 138.917 219.787 138.917 221.417 138.917 L 222.107 138.917 L 222.107 132.357 L 221.297 132.357 C 219.717 132.357 218.137 132.357 216.547 132.357 C 215.907 132.357 215.757 132.167 215.767 131.557 C 215.767 129.057 215.767 126.557 215.767 124.047 L 215.767 123.277 L 206.847 123.277 L 206.847 132.367 L 199.147 132.367 L 199.147 138.977 L 206.817 138.977 C 206.817 139.197 206.817 139.337 206.817 139.477 C 206.817 142.647 206.817 145.807 206.817 148.967 C 206.757 154.617 206.647 160.257 206.587 165.897 C 206.615 166.68 206.685 167.461 206.797 168.237 L 204.797 168.507 C 204.673 168.109 204.57 167.705 204.487 167.297 C 204.187 165.377 203.947 163.457 203.617 161.557 C 202.617 155.937 199.327 152.127 194.217 149.837 C 191.944 148.856 189.428 148.584 186.997 149.057 C 185.544 149.212 184.145 149.697 182.907 150.477 C 182.284 150.842 181.644 151.175 180.987 151.477 C 180.987 148.747 180.987 146.177 180.987 143.607 C 180.987 143.447 181.247 143.207 181.427 143.157 C 182.427 142.887 183.357 142.707 184.307 142.437 C 188.637 141.197 192.607 139.277 195.457 135.697 C 198.996 131.417 201.157 126.167 201.657 120.637 C 202.013 117.241 201.171 113.828 199.277 110.987 C 196.447 106.827 192.537 104.797 187.467 105.497 C 183.146 106.124 179.307 108.589 176.937 112.257 C 174.595 115.824 173.328 119.989 173.287 124.257 C 173.097 127.977 173.157 131.707 173.107 135.437 L 173.107 136.257 C 172.935 136.286 172.762 136.306 172.587 136.317 C 165.392 136.635 158.183 136.478 151.007 135.847 C 148.871 135.612 146.714 135.652 144.587 135.967 C 140.017 136.637 136.827 139.407 134.757 143.407 C 131.757 149.277 131.697 155.407 133.757 161.567 C 134.929 165.652 138.079 168.873 142.137 170.137 C 145.144 170.993 148.304 171.171 151.387 170.657 C 152.51 170.559 153.641 170.585 154.757 170.737 C 155.407 170.807 155.757 171.267 155.757 172.027 C 155.757 173.657 155.877 175.287 155.947 176.917 L 156.787 195.447 C 156.787 196.007 156.787 196.567 156.787 197.177 C 140.047 191.697 123.847 193.637 107.937 200.477 C 109.307 203.627 110.647 206.707 111.987 209.817 C 112.927 209.437 113.797 209.077 114.667 208.737 C 120.871 206.228 127.432 204.716 134.107 204.257 C 141.867 203.859 149.622 205.131 156.847 207.987 C 157.801 208.36 158.826 208.514 159.847 208.437 C 164.378 207.878 167.628 203.797 167.157 199.257 C 166.977 197.257 166.907 195.257 166.807 193.317 C 166.634 189.717 166.474 186.11 166.327 182.497 C 166.147 178.347 165.877 174.197 165.837 170.037 C 165.757 161.707 165.837 153.367 165.837 145.037 C 165.837 144.787 165.837 144.527 165.837 144.207 L 173.247 144.207 L 173.247 183.207 C 175.867 183.207 178.247 183.207 180.727 183.207 C 180.867 183.207 181.097 182.897 181.117 182.717 C 181.177 182.107 181.117 181.487 181.117 180.877 C 181.167 175.637 181.177 170.397 181.277 165.157 C 181.328 162.459 182.652 159.945 184.847 158.377 C 188.686 155.214 194.51 157.214 195.597 162.067 C 195.867 163.067 195.947 164.167 196.157 165.207 C 196.466 167.275 196.904 169.323 197.467 171.337 C 198.437 174.577 201.586 176.661 204.947 176.287 C 206.427 176.197 207.897 175.947 209.367 175.737 C 209.893 175.608 210.449 175.751 210.847 176.117 C 212.216 177.298 213.897 178.059 215.687 178.307 C 219.912 179.035 224.249 177.946 227.627 175.307 C 227.767 175.197 227.927 175.097 228.067 174.997 C 228.577 176.057 229.067 177.087 229.557 178.097 C 230.695 180.545 232.411 182.68 234.557 184.317 C 237.144 186.397 240.533 187.199 243.777 186.497 C 247.727 185.641 251.093 183.077 252.967 179.497 C 254.67 176.348 255.589 172.836 255.647 169.257 C 255.737 166.827 255.597 164.367 255.547 161.917 Z M 116.277 178.117 C 115.277 159.537 114.197 141.057 113.157 122.557 L 103.687 123.107 C 103.675 123.317 103.675 123.527 103.687 123.737 C 103.797 125.907 103.897 128.077 104.017 130.247 C 104.277 134.817 104.567 139.387 104.817 143.957 C 105.177 150.35 105.527 156.737 105.867 163.117 C 106.227 169.527 106.617 175.927 106.957 182.337 C 107.249 188.218 113.799 191.579 118.747 188.385 C 118.957 188.249 119.161 188.103 119.357 187.947 C 126.88 182.189 136.594 180.125 145.807 182.327 C 147.457 182.687 149.037 183.327 150.727 183.827 L 154.567 174.927 C 141.197 169.697 128.547 170.977 116.277 178.117 Z M 120.457 146.027 L 120.457 169.427 L 128.747 169.427 L 128.747 146.027 L 120.457 146.027 Z M 128.777 137.637 L 120.447 137.637 L 120.447 143.637 L 128.777 143.637 L 128.777 137.637 Z" style="fill: rgb(246, 234, 230);" transform="matrix(1, 0, 0, 1, 0, 7.105427357601002e-15)"/>
  <path class="cls-3" d="M 255.547 161.917 C 255.597 164.367 255.737 166.827 255.697 169.277 C 255.639 172.856 254.72 176.368 253.017 179.517 C 251.143 183.097 247.777 185.661 243.827 186.517 C 240.583 187.219 237.194 186.417 234.607 184.337 C 232.461 182.7 230.745 180.565 229.607 178.117 C 229.097 177.117 228.607 176.117 228.117 175.017 C 227.977 175.117 227.817 175.217 227.677 175.327 C 224.299 177.966 219.962 179.055 215.737 178.327 C 213.947 178.079 212.266 177.318 210.897 176.137 C 210.499 175.771 209.943 175.628 209.417 175.757 C 207.947 175.967 206.477 176.217 204.997 176.307 C 201.636 176.681 198.487 174.597 197.517 171.357 C 196.954 169.343 196.516 167.295 196.207 165.227 C 195.997 164.227 195.917 163.117 195.647 162.087 C 194.56 157.234 188.736 155.234 184.897 158.397 C 182.702 159.965 181.378 162.479 181.327 165.177 C 181.227 170.417 181.217 175.657 181.167 180.897 C 181.167 181.507 181.167 182.127 181.167 182.737 C 181.167 182.917 180.917 183.227 180.777 183.227 C 178.347 183.227 175.917 183.227 173.297 183.227 L 173.297 144.227 L 165.847 144.227 C 165.847 144.547 165.847 144.807 165.847 145.057 C 165.847 153.387 165.847 161.727 165.847 170.057 C 165.847 174.217 166.157 178.367 166.337 182.517 C 166.491 186.123 166.651 189.73 166.817 193.337 C 166.917 195.337 166.987 197.337 167.167 199.277 C 167.638 203.817 164.388 207.898 159.857 208.457 C 158.836 208.534 157.811 208.38 156.857 208.007 C 149.625 205.148 141.864 203.876 134.097 204.277 C 127.422 204.736 120.861 206.248 114.657 208.757 C 113.787 209.097 112.917 209.457 111.977 209.837 C 110.637 206.727 109.297 203.647 107.927 200.497 C 123.847 193.637 140.047 191.697 156.777 197.167 C 156.777 196.557 156.777 195.997 156.777 195.437 L 155.937 176.907 C 155.867 175.277 155.767 173.647 155.747 172.017 C 155.747 171.257 155.377 170.797 154.747 170.727 C 153.631 170.575 152.5 170.549 151.377 170.647 C 148.294 171.161 145.134 170.983 142.127 170.127 C 138.069 168.863 134.919 165.642 133.747 161.557 C 131.747 155.407 131.747 149.267 134.747 143.397 C 136.817 139.397 140.007 136.627 144.577 135.957 C 146.704 135.642 148.861 135.602 150.997 135.837 C 158.173 136.468 165.382 136.625 172.577 136.307 C 172.752 136.296 172.925 136.276 173.097 136.247 L 173.097 135.427 C 173.097 131.697 173.097 127.967 173.277 124.247 C 173.318 119.979 174.585 115.814 176.927 112.247 C 179.297 108.579 183.136 106.114 187.457 105.487 C 192.527 104.787 196.457 106.817 199.267 110.977 C 201.161 113.818 202.003 117.231 201.647 120.627 C 201.139 126.173 198.959 131.435 195.397 135.717 C 192.547 139.297 188.577 141.217 184.247 142.457 C 183.247 142.727 182.317 142.907 181.367 143.177 C 181.187 143.227 180.927 143.467 180.927 143.627 C 180.927 146.197 180.927 148.767 180.927 151.497 C 181.584 151.195 182.224 150.862 182.847 150.497 C 184.085 149.717 185.484 149.232 186.937 149.077 C 189.368 148.604 191.884 148.876 194.157 149.857 C 199.267 152.147 202.577 155.957 203.557 161.577 C 203.887 163.477 204.127 165.397 204.427 167.317 C 204.51 167.725 204.613 168.129 204.737 168.527 L 206.737 168.257 C 206.625 167.481 206.555 166.7 206.527 165.917 C 206.587 160.277 206.697 154.637 206.757 148.987 C 206.757 145.827 206.757 142.667 206.757 139.497 C 206.757 139.357 206.757 139.217 206.757 138.997 L 199.087 138.997 L 199.087 132.387 L 206.847 132.387 L 206.847 123.297 L 215.787 123.297 L 215.787 124.067 C 215.787 126.567 215.787 129.067 215.787 131.577 C 215.787 132.187 215.927 132.397 216.567 132.377 C 218.157 132.377 219.737 132.377 221.317 132.377 L 222.127 132.377 L 222.127 138.937 L 221.437 138.937 C 219.807 138.937 218.177 138.937 216.547 138.937 C 215.947 138.937 215.787 139.117 215.787 139.697 C 215.787 144.377 215.787 149.047 215.787 153.697 C 215.787 157.307 215.567 160.917 215.557 164.527 C 215.625 165.724 215.805 166.913 216.097 168.077 C 216.237 168.991 217.081 169.626 217.997 169.507 C 219.796 169.634 221.554 168.93 222.767 167.597 C 223.767 166.447 224.577 165.187 225.447 163.957 C 225.554 163.754 225.593 163.523 225.557 163.297 C 224.977 157.497 224.307 151.707 223.817 145.897 C 223.381 141.242 223.324 136.56 223.647 131.897 C 223.872 128.076 224.737 124.32 226.207 120.787 C 228.362 115.379 233.268 111.556 239.037 110.787 C 245.737 109.667 252.757 113.607 255.037 119.787 C 256.077 122.742 256.318 125.919 255.737 128.997 C 254.487 136.427 251.097 142.887 246.737 148.997 C 242.847 154.447 239.117 159.997 235.327 165.547 C 235.183 165.754 235.116 166.005 235.137 166.257 C 235.586 169.177 236.566 171.99 238.027 174.557 C 238.607 175.443 239.303 176.247 240.097 176.947 C 240.901 177.671 242.09 177.765 242.997 177.177 C 244.74 176.174 245.946 174.448 246.287 172.467 C 246.829 170.213 247.005 167.886 246.807 165.577 C 246.627 162.577 246.377 159.687 246.207 156.747 C 245.798 152.76 247.049 148.781 249.667 145.747 C 251.657 143.443 254.544 142.109 257.587 142.087 C 260.631 142.034 263.36 143.954 264.337 146.837 C 265.517 149.975 265.737 153.393 264.967 156.657 C 264.507 158.523 264.538 160.476 265.057 162.327 C 265.827 164.897 266.787 165.667 269.497 165.657 C 270.783 165.69 272.049 165.342 273.137 164.657 C 273.847 164.233 274.297 163.482 274.337 162.657 C 274.397 161.657 274.487 160.727 274.497 159.757 C 274.497 154.777 274.497 149.793 274.497 144.807 L 274.497 143.987 L 283.497 143.987 L 283.497 174.147 L 286.667 173.587 C 286.557 172.497 286.377 171.447 286.357 170.397 C 286.287 166.477 286.227 162.557 286.237 158.647 C 286.237 152.387 286.307 146.127 286.357 139.867 L 286.357 139.017 L 278.917 139.017 L 278.917 132.407 L 286.377 132.407 L 286.377 123.327 L 294.797 123.327 L 294.797 132.327 L 301.847 132.327 L 301.847 138.917 L 294.847 138.917 C 294.847 139.347 294.847 139.687 294.847 140.037 C 294.797 147.037 294.737 154.037 294.707 161.037 C 294.707 163.817 294.707 166.607 294.807 169.387 C 294.877 170.947 295.197 172.497 295.427 174.277 C 296.897 173.647 298.147 173.117 299.427 172.557 C 299.917 172.337 300.577 172.147 300.797 171.747 C 301.017 171.347 300.737 170.747 300.657 170.207 C 299.247 160.917 304.507 153.757 311.497 150.507 C 315.631 148.411 320.462 148.178 324.777 149.867 C 327.156 150.774 329.203 152.381 330.647 154.477 C 333.554 158.392 332.872 163.9 329.097 166.987 C 326.134 169.495 322.748 171.455 319.097 172.777 L 312.387 175.357 C 312.657 175.507 312.817 175.567 312.937 175.657 C 316.837 178.312 322.029 178.038 325.627 174.987 C 326.58 174.212 327.203 173.104 327.367 171.887 L 335.627 172.447 C 335.646 173.865 335.327 175.266 334.697 176.537 C 332.867 180.658 329.303 183.756 324.967 184.997 C 317.817 187.187 311.357 185.997 305.837 180.717 C 305.419 180.278 305.031 179.81 304.677 179.317 C 303.677 179.887 302.677 180.457 301.617 180.967 C 299.027 182.267 296.187 182.697 293.427 183.407 L 284.347 185.737 C 284.507 187.107 284.697 188.457 284.837 189.817 C 285.408 193.685 284.988 197.635 283.617 201.297 C 282.174 204.746 279.623 207.617 276.367 209.457 C 272.161 212.167 266.833 212.445 262.367 210.187 C 251.647 204.947 250.077 192.327 257.187 184.637 C 258.754 183.028 260.506 181.611 262.407 180.417 C 265.869 178.3 269.672 176.801 273.647 175.987 C 274.427 175.787 274.737 175.507 274.647 174.727 C 274.623 174.467 274.623 174.206 274.647 173.947 C 273.195 174.211 271.73 174.401 270.257 174.517 C 266.257 174.647 262.507 173.727 259.637 170.647 C 257.818 168.521 256.614 165.938 256.157 163.177 C 256.067 162.737 255.967 162.297 255.877 161.867 C 255.297 158.507 256.397 155.247 256.517 151.927 C 255.783 152.507 255.352 153.39 255.347 154.327 C 255.217 156.897 255.407 159.407 255.547 161.917 Z M 233.277 152.207 L 233.477 152.257 C 234.017 151.407 234.477 150.537 235.097 149.717 C 236.867 147.187 238.707 144.717 240.457 142.157 C 243.657 137.477 246.137 132.487 246.857 126.777 C 247.177 124.207 246.627 122.007 244.147 120.537 C 242.418 119.462 240.254 119.367 238.437 120.287 C 235.969 121.505 234.188 123.778 233.597 126.467 C 232.63 130.145 232.226 133.948 232.397 137.747 C 232.477 141.277 232.727 144.807 232.927 148.337 C 233.007 149.637 233.157 150.917 233.277 152.207 Z M 157.177 154.107 C 157.007 152.657 156.907 151.197 156.637 149.767 C 156.207 147.557 155.347 145.547 153.287 144.337 C 149.217 141.866 143.908 143.871 142.487 148.417 C 141.82 150.665 141.596 153.022 141.827 155.357 C 141.936 157.081 142.446 158.755 143.317 160.247 C 145.979 164.985 152.772 165.066 155.545 160.392 C 155.587 160.321 155.628 160.249 155.667 160.177 C 156.671 158.312 157.191 156.225 157.177 154.107 Z M 180.747 135.347 C 181.657 135.087 182.367 134.917 183.057 134.687 C 186.177 133.687 188.927 132.087 190.607 129.117 C 191.42 127.765 192.116 126.347 192.687 124.877 C 193.243 123.356 193.632 121.781 193.847 120.177 C 194.142 118.332 193.672 116.448 192.547 114.957 C 191.482 113.396 189.492 112.757 187.717 113.407 C 186.199 113.888 184.854 114.802 183.847 116.037 C 182.213 118.108 181.288 120.65 181.207 123.287 C 180.927 127.237 180.897 131.197 180.747 135.347 Z M 275.007 185.057 C 271.467 185.997 268.127 187.117 265.277 189.337 C 264.5 189.951 263.796 190.652 263.177 191.427 C 261.068 194.105 261.287 197.936 263.687 200.357 C 265.342 202.243 267.949 202.983 270.347 202.247 C 273.004 201.545 275.025 199.384 275.547 196.687 C 276.427 192.817 275.497 188.997 275.007 185.057 Z M 308.707 167.707 C 308.804 167.717 308.901 167.717 308.997 167.707 C 311.811 166.613 314.621 165.513 317.427 164.407 C 319.542 163.521 321.516 162.331 323.287 160.877 C 324.047 160.277 324.147 159.877 323.427 159.207 C 322.758 158.552 321.952 158.053 321.067 157.747 C 314.672 156.252 308.581 161.18 308.707 167.747 L 308.707 167.707 Z" style="fill: rgb(254, 99, 23);" transform="matrix(1, 0, 0, 1, 0, 7.105427357601002e-15)"/>
  <path class="cls-3" d="M 116.277 178.117 C 128.547 170.977 141.197 169.697 154.527 174.927 L 150.687 183.827 C 148.997 183.297 147.417 182.687 145.767 182.327 C 136.554 180.125 126.84 182.189 119.317 187.947 C 114.707 191.611 107.859 188.909 106.992 183.085 C 106.955 182.837 106.93 182.587 106.917 182.337 C 106.577 175.927 106.187 169.527 105.827 163.117 C 105.467 156.707 105.137 150.347 104.777 143.957 C 104.527 139.387 104.237 134.817 103.977 130.247 C 103.857 128.077 103.757 125.907 103.647 123.737 C 103.635 123.527 103.635 123.317 103.647 123.107 L 113.117 122.557 C 114.197 141.057 115.237 159.537 116.277 178.117 Z" style="fill: rgb(254, 99, 23);" transform="matrix(1, 0, 0, 1, 0, 7.105427357601002e-15)"/>
  <path class="cls-3" d="M 120.457 146.027 L 128.747 146.027 L 128.747 169.427 L 120.457 169.427 L 120.457 146.027 Z" style="fill: rgb(254, 99, 23);" transform="matrix(1, 0, 0, 1, 0, 7.105427357601002e-15)"/>
  <path class="cls-4" d="M 128.777 137.637 L 128.777 143.637 L 120.447 143.637 L 120.447 137.637 L 128.777 137.637 Z" style="fill: rgb(254, 102, 27);" transform="matrix(1, 0, 0, 1, 0, 7.105427357601002e-15)"/>
  <path class="cls-5" d="M 255.547 161.917 C 255.407 159.407 255.217 156.917 255.177 154.377 C 255.182 153.44 255.613 152.557 256.347 151.977 C 256.227 155.297 255.127 158.557 255.707 161.917 L 255.547 161.917 Z" style="fill: rgb(247, 224, 216);" transform="matrix(1, 0, 0, 1, 0, 7.105427357601002e-15)"/>
  <path class="cls-6" d="M 233.277 152.207 C 233.157 150.917 233.007 149.627 232.927 148.337 C 232.727 144.807 232.477 141.277 232.397 137.747 C 232.226 133.948 232.63 130.145 233.597 126.467 C 234.188 123.778 235.969 121.505 238.437 120.287 C 240.254 119.367 242.418 119.462 244.147 120.537 C 246.627 122.007 247.147 124.207 246.857 126.777 C 246.137 132.487 243.657 137.477 240.457 142.157 C 238.707 144.707 236.867 147.157 235.097 149.717 C 234.517 150.537 234.017 151.407 233.477 152.257 L 233.277 152.207 Z" style="fill: rgb(246, 233, 230);" transform="matrix(1, 0, 0, 1, 0, 7.105427357601002e-15)"/>
  <path class="cls-6" d="M 157.177 154.107 C 157.191 156.225 156.671 158.312 155.667 160.177 C 153.06 164.945 146.268 165.103 143.442 160.46 C 143.4 160.39 143.358 160.319 143.317 160.247 C 142.453 158.754 141.95 157.079 141.847 155.357 C 141.616 153.022 141.84 150.665 142.507 148.417 C 143.928 143.871 149.237 141.866 153.307 144.337 C 155.367 145.547 156.227 147.557 156.657 149.767 C 156.907 151.197 157.007 152.637 157.177 154.107 Z" style="fill: rgb(246, 233, 230);" transform="matrix(1, 0, 0, 1, 0, 7.105427357601002e-15)"/>
  <path class="cls-6" d="M 180.747 135.347 C 180.897 131.197 180.927 127.237 181.217 123.287 C 181.295 120.651 182.217 118.109 183.847 116.037 C 184.852 114.804 186.193 113.89 187.707 113.407 C 189.482 112.757 191.472 113.396 192.537 114.957 C 193.662 116.448 194.132 118.332 193.837 120.177 C 193.622 121.781 193.233 123.356 192.677 124.877 C 192.106 126.347 191.41 127.765 190.597 129.117 C 188.917 132.117 186.167 133.657 183.047 134.687 C 182.367 134.917 181.657 135.087 180.747 135.347 Z" style="fill: rgb(246, 233, 230);" transform="matrix(1, 0, 0, 1, 0, 7.105427357601002e-15)"/>
  <path class="cls-6" d="M 275.007 185.057 C 275.497 188.997 276.427 192.817 275.547 196.687 C 275.025 199.384 273.004 201.545 270.347 202.247 C 267.949 202.983 265.342 202.243 263.687 200.357 C 261.287 197.936 261.068 194.105 263.177 191.427 C 263.796 190.652 264.5 189.951 265.277 189.337 C 268.127 187.117 271.467 185.997 275.007 185.057 Z" style="fill: rgb(246, 233, 230);" transform="matrix(1, 0, 0, 1, 0, 7.105427357601002e-15)"/>
  <path class="cls-7" d="M 308.707 167.707 C 308.581 161.14 314.672 156.212 321.067 157.707 C 321.952 158.013 322.758 158.512 323.427 159.167 C 324.147 159.807 324.047 160.237 323.287 160.837 C 321.516 162.291 319.542 163.481 317.427 164.367 C 314.614 165.48 311.804 166.58 308.997 167.667 C 308.903 167.691 308.805 167.704 308.707 167.707 Z" style="fill: rgb(246, 233, 229);" transform="matrix(1, 0, 0, 1, 0, 7.105427357601002e-15)"/>
</svg>